<svg xmlns="http://www.w3.org/2000/svg" viewBox="0 0 1200 630">
  <defs>
    <linearGradient id="bg" x1="0" y1="0" x2="1" y2="1">
      <stop offset="0%" stop-color="#073763"/>
      <stop offset="55%" stop-color="#0f5ea8"/>
      <stop offset="130%" stop-color="#00b8d9"/>
    </linearGradient>
  </defs>
  <rect width="1200" height="630" fill="url(#bg)"/>
  <path d="M0 470 Q 100 440 200 470 T 400 470 T 600 470 T 800 470 T 1000 470 T 1200 470 V630 H0 Z" fill="#ffffff" fill-opacity="0.10"/>
  <path d="M0 510 Q 100 484 200 510 T 400 510 T 600 510 T 800 510 T 1000 510 T 1200 510 V630 H0 Z" fill="#ffffff" fill-opacity="0.16"/>
  <g transform="translate(90,90)">
    <rect width="88" height="88" rx="20" fill="#ffffff" fill-opacity="0.14"/>
    <svg x="18" y="18" width="52" height="52" viewBox="0 0 24 24" fill="none" stroke="#ffffff" stroke-width="2" stroke-linecap="round">
      <path d="M2 17c1.5 1.2 3 1.2 4.5 0s3-1.2 4.5 0 3 1.2 4.5 0 3-1.2 4.5 0"/>
      <path d="M2 21c1.5 1.2 3 1.2 4.5 0s3-1.2 4.5 0 3 1.2 4.5 0 3-1.2 4.5 0"/>
      <path d="M12 13V4l3 2"/>
      <circle cx="12" cy="4" r="1.2" fill="#ffffff"/>
    </svg>
  </g>
  <text x="90" y="260" font-family="Arial, sans-serif" font-size="64" font-weight="800" fill="#ffffff">Jasa Kolam Renang Bogor</text>
  <text x="90" y="320" font-family="Arial, sans-serif" font-size="32" font-weight="600" fill="#e7f3fc">Pembuatan &#183; Perawatan &#183; Renovasi Kolam Renang</text>
  <text x="90" y="380" font-family="Arial, sans-serif" font-size="28" fill="#c3e2f7">Sentul &#183; Puncak &#183; Bogor Kota &#183; Cibinong &#183; dan sekitarnya</text>
  <g transform="translate(90,440)">
    <rect width="230" height="56" rx="28" fill="#25d366"/>
    <text x="115" y="36" font-family="Arial, sans-serif" font-size="24" font-weight="700" fill="#ffffff" text-anchor="middle">Chat WhatsApp</text>
  </g>
</svg>
